<svg width="201" height="38" viewBox="0 0 201 38" fill="none" xmlns="http://www.w3.org/2000/svg">
<path d="M198.833 19L199.894 20.0606C200.175 19.7793 200.333 19.3978 200.333 19C200.333 18.6022 200.175 18.2206 199.894 17.9393L198.833 19ZM157.167 17.5C156.338 17.5 155.667 18.1715 155.667 19C155.667 19.8284 156.338 20.5 157.167 20.5L157.167 17.5ZM181.106 34.606C180.52 35.1918 180.52 36.1415 181.106 36.7273C181.692 37.3131 182.642 37.3131 183.227 36.7273L181.106 34.606ZM183.227 1.27265C182.642 0.686866 181.692 0.686866 181.106 1.27265C180.52 1.85844 180.52 2.80819 181.106 3.39397L183.227 1.27265ZM198.833 17.5L157.167 17.5L157.167 20.5L198.833 20.5L198.833 17.5ZM183.227 36.7273L199.894 20.0606L197.773 17.9393L181.106 34.606L183.227 36.7273ZM199.894 17.9393L183.227 1.27265L181.106 3.39397L197.773 20.0606L199.894 17.9393ZM157.5 17.5H0V20.5H157.5V17.5Z" fill="#C0B7E8"/>
</svg>
